<svg width="16" height="17" viewBox="0 0 16 17" fill="none" xmlns="http://www.w3.org/2000/svg">
<g clip-path="url(#clip0_1_718)">
<path d="M0 3.87817C0 3.74557 0.0526784 3.61839 0.146447 3.52462C0.240215 3.43085 0.367392 3.37817 0.5 3.37817H15.5C15.6326 3.37817 15.7598 3.43085 15.8536 3.52462C15.9473 3.61839 16 3.74557 16 3.87817C16 4.01078 15.9473 4.13796 15.8536 4.23173C15.7598 4.3255 15.6326 4.37817 15.5 4.37817H0.5C0.367392 4.37817 0.240215 4.3255 0.146447 4.23173C0.0526784 4.13796 0 4.01078 0 3.87817ZM15.5 8.03189H0.5C0.367392 8.03189 0.240215 8.08457 0.146447 8.17834C0.0526784 8.27211 0 8.39928 0 8.53189C0 8.6645 0.0526784 8.79168 0.146447 8.88545C0.240215 8.97921 0.367392 9.03189 0.5 9.03189H15.5C15.6326 9.03189 15.7598 8.97921 15.8536 8.88545C15.9473 8.79168 16 8.6645 16 8.53189C16 8.39928 15.9473 8.27211 15.8536 8.17834C15.7598 8.08457 15.6326 8.03189 15.5 8.03189ZM8 12.6856H0.5C0.367392 12.6856 0.240215 12.7383 0.146447 12.8321C0.0526784 12.9258 0 13.053 0 13.1856C0 13.3182 0.0526784 13.4454 0.146447 13.5392C0.240215 13.6329 0.367392 13.6856 0.5 13.6856H8C8.13261 13.6856 8.25979 13.6329 8.35355 13.5392C8.44732 13.4454 8.5 13.3182 8.5 13.1856C8.5 13.053 8.44732 12.9258 8.35355 12.8321C8.25979 12.7383 8.13261 12.6856 8 12.6856Z" fill="white"/>
</g>
<defs>
<clipPath id="clip0_1_718">
<rect width="16" height="16" fill="white" transform="translate(0 0.531982)"/>
</clipPath>
</defs>
</svg>
