<svg width="141" height="103" viewBox="0 0 141 103" fill="none" xmlns="http://www.w3.org/2000/svg">
<path d="M1.78141 69.3009C2.87762 67.3306 4.45338 65.8358 6.37175 64.7488C8.29012 63.6617 10.4825 63.1182 12.8805 63.1182C15.6895 63.1182 18.156 63.8655 20.2799 65.2923C22.4039 66.7191 23.9111 68.6894 24.7333 71.2712H18.9097C18.3616 70.0482 17.5394 69.165 16.4431 68.5535C15.4154 67.942 14.1822 67.6703 12.8119 67.6703C11.3731 67.6703 10.0029 68.01 8.9067 68.6894C7.74198 69.3688 6.85138 70.32 6.23476 71.6109C5.61814 72.8339 5.27548 74.3286 5.27548 76.0271C5.27548 77.6577 5.61814 79.1525 6.23476 80.3754C6.85138 81.6663 7.74198 82.6175 8.9067 83.2969C10.0714 83.9763 11.3731 84.3161 12.8119 84.3161C14.1822 84.3161 15.4154 84.0443 16.4431 83.4328C17.4708 82.8213 18.2931 81.9381 18.9097 80.7151H24.7333C23.9111 83.2969 22.4039 85.2672 20.2799 86.694C18.156 88.1208 15.6895 88.8002 12.8119 88.8002C10.414 88.8002 8.22154 88.2567 6.30317 87.1696C4.38481 86.0826 2.80904 84.5878 1.71283 82.6175C0.616618 80.6472 0 78.4731 0 76.0271C0.0685131 73.4453 0.685198 71.2712 1.78141 69.3009Z" fill="#FEBF43"/>
<path d="M32.8177 87.5774C31.2419 86.6942 30.0773 85.5392 29.1866 83.9765C28.2959 82.4138 27.8848 80.6474 27.8848 78.6091C27.8848 76.5708 28.3644 74.8043 29.255 73.2417C30.1457 71.679 31.379 70.4561 32.9548 69.6408C34.5306 68.7575 36.2434 68.3499 38.2303 68.3499C40.1487 68.3499 41.93 68.7575 43.5058 69.6408C45.0816 70.524 46.3148 71.679 47.2054 73.2417C48.0961 74.8043 48.5757 76.5708 48.5757 78.6091C48.5757 80.6474 48.0961 82.4138 47.2054 83.9765C46.2462 85.5392 45.013 86.7621 43.4372 87.5774C41.8614 88.4607 40.0801 88.8683 38.1617 88.8683C36.1063 88.8683 34.3935 88.3927 32.8177 87.5774ZM40.6283 83.7727C41.4504 83.2971 42.0671 82.6856 42.5467 81.8024C43.0263 80.9191 43.3002 79.832 43.3002 78.5412C43.3002 76.6388 42.8207 75.212 41.793 74.1929C40.7653 73.1737 39.5321 72.6981 38.0933 72.6981C36.6545 72.6981 35.4213 73.1737 34.4621 74.1929C33.5029 75.212 33.0232 76.6388 33.0232 78.5412C33.0232 80.4435 33.5029 81.8703 34.4621 82.8894C35.4213 83.9086 36.586 84.3842 38.0933 84.3842C38.984 84.4521 39.8061 84.2483 40.6283 83.7727Z" fill="#FEBF43"/>
<path d="M69.1981 70.5918C70.6369 72.0865 71.3905 74.1927 71.3905 76.8424V88.5284H66.3206V77.5218C66.3206 75.9592 65.9095 74.7362 65.1559 73.853C64.3337 72.9697 63.306 72.5621 61.8672 72.5621C60.497 72.5621 59.3322 72.9697 58.5786 73.853C57.7564 74.7362 57.3453 75.8912 57.3453 77.5218V88.5284H52.2754V68.6214H57.3453V71.0674C58.0304 70.1841 58.8526 69.5047 59.9488 69.0291C60.9765 68.5535 62.1413 68.2817 63.4431 68.2817C65.7725 68.3497 67.6908 69.097 69.1981 70.5918Z" fill="#FEBF43"/>
<path d="M93.1092 70.5918C94.548 72.0865 95.3018 74.1927 95.3018 76.8424V88.5284H90.2317V77.5218C90.2317 75.9592 89.8207 74.7362 89.067 73.853C88.2449 72.9697 87.2171 72.5621 85.7784 72.5621C84.4081 72.5621 83.2433 72.9697 82.4897 73.853C81.6675 74.7362 81.2566 75.8912 81.2566 77.5218V88.5284H76.1865V68.6214H81.2566V71.0674C81.9417 70.1841 82.7637 69.5047 83.86 69.0291C84.8877 68.5535 86.0524 68.2817 87.3542 68.2817C89.6836 68.3497 91.6705 69.097 93.1092 70.5918Z" fill="#FEBF43"/>
<path d="M118.664 80.1038H104.003C104.14 81.5306 104.619 82.6856 105.51 83.5009C106.401 84.3162 107.497 84.7239 108.799 84.7239C110.717 84.7239 112.019 83.9086 112.841 82.3459H118.322C117.774 84.2483 116.609 85.8109 114.965 87.1018C113.321 88.3248 111.334 88.9363 108.936 88.9363C107.017 88.9363 105.304 88.5286 103.729 87.6454C102.221 86.7621 100.988 85.6071 100.166 84.0445C99.2753 82.4818 98.8643 80.7153 98.8643 78.677C98.8643 76.6388 99.2753 74.8043 100.166 73.2417C100.988 71.679 102.221 70.4561 103.729 69.6408C105.236 68.8255 107.017 68.3499 109.004 68.3499C110.923 68.3499 112.635 68.7575 114.143 69.5728C115.65 70.3881 116.815 71.5431 117.637 73.0379C118.459 74.5326 118.87 76.2311 118.87 78.2014C118.802 78.8809 118.733 79.4923 118.664 80.1038ZM113.526 76.7067C113.526 75.4158 113.047 74.3967 112.087 73.5814C111.197 72.834 110.032 72.4264 108.73 72.4264C107.497 72.4264 106.401 72.834 105.579 73.5814C104.688 74.3288 104.208 75.4158 104.003 76.7067H113.526Z" fill="#FEBF43"/>
<path d="M134.354 88.7323L127.571 80.2396V88.7323H122.501V62.167H127.571V77.2501L134.285 68.8253H140.931L132.093 78.8128L141 88.7323H134.354Z" fill="#FEBF43"/>
<path d="M4.93269 95.9341V96.6814H2.94588V102.932H2.05517V96.6814H0.0683594V95.9341H4.93269Z" fill="#FEBF43"/>
<path d="M11.7848 102.932L10.072 100.079H8.97589V102.932H8.0166V95.8662H10.2776C10.8257 95.8662 11.2368 95.9342 11.6478 96.138C11.9904 96.3418 12.2644 96.5456 12.47 96.8853C12.6755 97.2251 12.7441 97.5648 12.7441 97.9724C12.7441 98.448 12.607 98.8557 12.333 99.2633C12.0589 99.603 11.6479 99.8748 11.0313 100.011L12.8125 102.932H11.7848ZM8.97589 99.3313H10.3461C10.8257 99.3313 11.2368 99.1954 11.5108 98.9915C11.7849 98.7198 11.8534 98.448 11.8534 98.0404C11.8534 97.6327 11.7164 97.293 11.5108 97.0892C11.2368 96.8853 10.8943 96.7495 10.3461 96.7495H8.97589V99.3313Z" fill="#FEBF43"/>
<path d="M17.2648 95.9341H16.3057V103H17.2648V95.9341Z" fill="#FEBF43"/>
<path d="M25.0075 99.4671C24.5964 99.8747 23.9798 100.079 23.1577 100.079H21.7874V103H20.8281V95.9341H23.0891C23.9112 95.9341 24.5278 96.1379 24.9389 96.4776C25.35 96.8853 25.5556 97.3609 25.5556 97.9723C25.6241 98.5838 25.4186 99.0594 25.0075 99.4671ZM24.2538 98.9235C24.5278 98.7197 24.5963 98.38 24.5963 97.9723C24.5963 97.0891 24.1168 96.6814 23.0891 96.6814H21.7188V99.2632H23.0891C23.6372 99.2632 24.0482 99.1274 24.2538 98.9235Z" fill="#FEBF43"/>
<path d="M141 101.913H30.0771V102.932H141V101.913Z" fill="#FEBF43"/>
<path d="M79.8181 18.4802C79.8181 21.5376 79.0644 24.4591 77.7627 26.973L76.735 28.8074L70.4318 39.6102L68.993 42.0561L68.2394 43.4149C66.6636 43.8226 65.2248 44.2302 63.8545 44.502L63.7175 44.2982L62.4842 42.192L60.7714 39.2705L59.6753 37.436L57.4143 33.6313L55.9071 31.0495L51.8647 24.1194V24.0515L51.5907 23.6438C50.8371 22.217 50.3574 20.5185 50.3574 18.8199C50.3574 16.7137 50.9741 14.8113 52.0703 13.1807C52.5499 12.4334 53.098 11.754 53.7831 11.2104C55.633 9.51188 58.0994 8.49275 60.7714 8.49275C64.4026 8.49275 67.6227 10.3272 69.4725 13.1807C70.5688 14.8113 71.1854 16.7817 71.1854 18.8199C71.1854 20.7223 70.7058 22.4208 69.8151 23.9835L69.6781 24.1873L65.6359 31.1854L65.4303 31.2533L63.9231 28.6715L62.2103 25.6821L64.5396 21.7414C64.8137 21.4017 65.0877 20.9941 65.2248 20.5864C65.4303 20.0429 65.5673 19.4993 65.5673 18.8879C65.5673 16.3061 63.4435 14.1999 60.84 14.1999C59.1272 14.1999 57.6198 15.0831 56.7976 16.442C56.318 17.1893 56.1125 18.0046 56.1125 18.8879C56.1125 19.5673 56.2496 20.2467 56.5236 20.7902C56.6607 21.062 56.7976 21.3338 57.0032 21.6055L60.84 28.1959L61.3881 29.215L62.9638 32.0007L64.0601 33.903L65.7729 36.8245L67.2117 34.3786L71.9391 26.2935C72.2816 25.8179 72.5557 25.2744 72.8298 24.7309C73.7205 22.9644 74.2 20.9941 74.2 18.8879C74.2 18.2084 74.1316 17.529 74.0631 16.8496C73.7205 14.4716 72.6927 12.2296 71.1854 10.4631C68.7189 7.47361 64.9507 5.57124 60.7714 5.57124C57.4828 5.57124 54.4683 6.72625 52.1389 8.62863C51.4537 9.17216 50.837 9.78364 50.3574 10.4631C48.8502 12.2296 47.8225 14.4716 47.4799 16.8496C47.3429 17.529 47.3429 18.2084 47.3429 18.9558C47.3429 21.1979 47.8909 23.372 48.9186 25.2065C49.0556 25.4782 49.1927 25.6821 49.3298 25.9538L55.7699 36.9604L55.9071 37.2322L59.0586 42.6676L60.2919 44.7738L60.7714 45.5891C58.5105 45.9967 56.4551 46.1326 54.6052 46.2005L53.7831 44.7058L44.4653 28.6715L44.3968 28.5356L44.1227 28.06L44.0543 27.9242C42.6155 25.2744 41.7247 22.1491 41.7247 18.8879C41.7247 17.1893 41.9303 15.4908 42.4099 13.9281C42.7524 12.7051 43.232 11.4822 43.7801 10.3951C44.7393 8.56069 45.9726 6.86214 47.4799 5.43536C48.0966 4.82388 48.7132 4.28034 49.3983 3.80475C52.6184 1.42678 56.5237 0 60.84 0C66.047 0 70.7744 2.03825 74.2 5.36741C75.7073 6.79419 76.9405 8.49274 77.8997 10.3951C78.4478 11.4822 78.9274 12.7051 79.2699 13.9281C79.6125 15.0831 79.8181 16.7137 79.8181 18.4802Z" fill="#FEBF43"/>
<path d="M42.5468 29.5548C42.5468 29.5548 27.8849 35.3979 33.4345 44.9097C38.9841 54.4216 76.3237 50.9566 110.032 22.1492C110.032 22.1492 82.1473 49.1221 52.4126 53.6063C22.7464 58.1584 22.2669 38.9988 42.5468 29.5548Z" fill="#FEBF43"/>
<path d="M127.091 3.94067L119.692 20.4506C119.555 20.7903 119.281 20.9262 118.938 20.9262C118.801 20.9262 118.664 20.8582 118.596 20.7903L112.087 16.6458L127.091 3.94067Z" fill="#FEBF43"/>
<path d="M103.592 12.9091C103.592 13.045 103.66 13.1129 103.729 13.1809L109.21 15.5588L109.827 21.8095C109.827 21.9454 109.964 22.0133 110.032 22.0133C110.101 22.0133 110.169 22.0133 110.238 21.9454L114.28 18.6162L113.8 18.3444L112.156 17.2574L111.813 17.0535L111.676 16.9177L110.238 20.5865L109.758 15.4229L127.092 3.8728L103.729 12.6373C103.66 12.7053 103.592 12.7732 103.592 12.9091Z" fill="#FEBF43"/>
</svg>
