<svg width="16" height="17" viewBox="0 0 16 17" fill="none" xmlns="http://www.w3.org/2000/svg">
<path d="M13.7859 11.6681C12.8194 10.8414 11.8384 10.3406 10.8838 11.1661L10.3137 11.665C9.8966 12.0271 9.1211 13.7192 6.12278 10.2701C3.12508 6.8253 4.90897 6.28895 5.32668 5.92993L5.89987 5.43041C6.84957 4.6031 6.49117 3.56161 5.80622 2.48954L5.39287 1.84017C4.70479 0.77059 3.95552 0.0681513 3.00333 0.89422L2.48883 1.34378C2.06799 1.65036 0.891641 2.64688 0.606295 4.54003C0.26288 6.81157 1.3462 9.41278 3.82815 12.2669C6.30698 15.1222 8.73398 16.5564 11.033 16.5314C12.9436 16.5108 14.0975 15.4856 14.4584 15.1128L14.9748 14.6626C15.9245 13.8372 15.3344 12.9968 14.3672 12.1682L13.7859 11.6681Z" fill="white"/>
</svg>
