<svg width="64" height="63" viewBox="0 0 64 63" fill="none" xmlns="http://www.w3.org/2000/svg">
<g filter="url(#filter0_d_1_2476)">
<rect x="14.2534" y="7.82666" width="36.2829" height="36.2829" rx="18.1415" fill="#21695B"/>
<g clip-path="url(#clip0_1_2476)">
<g clip-path="url(#clip1_1_2476)">
<path d="M36.8513 27.802C36.537 27.4748 36.1579 27.2999 35.7562 27.2999C35.3577 27.2999 34.9754 27.4716 34.6482 27.7988L33.6244 28.8193C33.5402 28.774 33.4559 28.7319 33.3749 28.6897C33.2583 28.6314 33.1481 28.5763 33.0542 28.518C32.0952 27.9089 31.2237 27.1152 30.3878 26.0882C29.9828 25.5763 29.7107 25.1454 29.5131 24.708C29.7787 24.465 30.025 24.2123 30.2647 23.9693C30.3554 23.8786 30.4461 23.7847 30.5368 23.6939C31.2172 23.0136 31.2172 22.1323 30.5368 21.452L29.6524 20.5675C29.5519 20.4671 29.4483 20.3634 29.3511 20.2597C29.1567 20.0589 28.9526 19.8515 28.742 19.6571C28.4277 19.3461 28.0519 19.1809 27.6566 19.1809C27.2614 19.1809 26.8791 19.3461 26.5551 19.6571L26.5486 19.6636L25.4471 20.7749C25.0324 21.1896 24.7959 21.695 24.744 22.2814C24.6663 23.2274 24.9449 24.1086 25.1587 24.6853C25.6836 26.1011 26.4676 27.4132 27.6372 28.8193C29.0562 30.5138 30.7636 31.8518 32.714 32.7946C33.4592 33.1477 34.4538 33.5657 35.565 33.6369C35.6331 33.6402 35.7044 33.6434 35.7692 33.6434C36.5176 33.6434 37.1461 33.3745 37.6385 32.8399C37.6418 32.8335 37.6482 32.8302 37.6515 32.8237C37.82 32.6196 38.0143 32.435 38.2185 32.2373C38.3578 32.1045 38.5003 31.9652 38.6396 31.8194C38.9604 31.4857 39.1288 31.0969 39.1288 30.6984C39.1288 30.2967 38.9571 29.9112 38.6299 29.5872L36.8513 27.802ZM38.0111 31.2136C38.0079 31.2136 38.0079 31.2168 38.0111 31.2136C37.8848 31.3496 37.7552 31.4727 37.6158 31.6088C37.4053 31.8097 37.1914 32.0203 36.9906 32.2568C36.6633 32.6067 36.2778 32.7719 35.7724 32.7719C35.7238 32.7719 35.672 32.7719 35.6234 32.7687C34.6611 32.7071 33.7669 32.3313 33.0963 32.0106C31.2626 31.1228 29.6524 29.8626 28.3143 28.2653C27.2095 26.9338 26.4709 25.7026 25.9817 24.3808C25.6804 23.5741 25.5702 22.9455 25.6188 22.3527C25.6512 21.9736 25.797 21.6593 26.0659 21.3904L27.1707 20.2856C27.3294 20.1366 27.4979 20.0556 27.6631 20.0556C27.8672 20.0556 28.0325 20.1787 28.1361 20.2824L28.1459 20.2921C28.3435 20.4768 28.5314 20.6679 28.729 20.8721C28.8295 20.9757 28.9331 21.0794 29.0368 21.1863L29.9213 22.0708C30.2647 22.4142 30.2647 22.7317 29.9213 23.0751C29.8273 23.1691 29.7366 23.263 29.6427 23.3538C29.3705 23.6324 29.1113 23.8916 28.8295 24.1443C28.823 24.1508 28.8165 24.154 28.8133 24.1605C28.5346 24.4391 28.5865 24.7112 28.6448 24.8959L28.6545 24.9251C28.8845 25.4823 29.2085 26.0072 29.701 26.6325L29.7042 26.6357C30.5984 27.7372 31.5412 28.5958 32.5812 29.2535C32.714 29.3377 32.8501 29.4057 32.9797 29.4705C33.0963 29.5289 33.2065 29.5839 33.3004 29.6422C33.3134 29.6487 33.3263 29.6584 33.3393 29.6649C33.4494 29.72 33.5531 29.7459 33.66 29.7459C33.9289 29.7459 34.0974 29.5774 34.1525 29.5224L35.2605 28.4144C35.3707 28.3042 35.5456 28.1714 35.7497 28.1714C35.9506 28.1714 36.1158 28.2977 36.2162 28.4079L36.2227 28.4144L38.0079 30.1995C38.3416 30.53 38.3416 30.8701 38.0111 31.2136ZM33.0153 21.9444C33.8641 22.087 34.6352 22.4887 35.2508 23.1043C35.8663 23.7199 36.2648 24.4909 36.4106 25.3398C36.4463 25.5536 36.6309 25.7026 36.8415 25.7026C36.8675 25.7026 36.8901 25.6994 36.916 25.6961C37.1558 25.6573 37.3145 25.4305 37.2757 25.1907C37.1007 24.1637 36.6147 23.2274 35.8728 22.4855C35.1309 21.7436 34.1946 21.2576 33.1676 21.0826C32.9278 21.0438 32.7043 21.2025 32.6622 21.439C32.62 21.6755 32.7756 21.9056 33.0153 21.9444ZM40.0522 25.0644C39.7639 23.3732 38.9669 21.8343 37.7422 20.6096C36.5176 19.385 34.9786 18.588 33.2874 18.2996C33.0509 18.2575 32.8274 18.4195 32.7853 18.656C32.7464 18.8958 32.9052 19.1193 33.1449 19.1614C34.6547 19.4174 36.0316 20.1334 37.1266 21.2252C38.2217 22.3203 38.9345 23.6972 39.1904 25.2069C39.226 25.4208 39.4107 25.5698 39.6213 25.5698C39.6472 25.5698 39.6699 25.5666 39.6958 25.5633C39.9323 25.5277 40.0943 25.3009 40.0522 25.0644Z" fill="white"/>
</g>
</g>
</g>
<defs>
<filter id="filter0_d_1_2476" x="0.996201" y="0.151429" width="62.7974" height="62.7974" filterUnits="userSpaceOnUse" color-interpolation-filters="sRGB">
<feFlood flood-opacity="0" result="BackgroundImageFix"/>
<feColorMatrix in="SourceAlpha" type="matrix" values="0 0 0 0 0 0 0 0 0 0 0 0 0 0 0 0 0 0 127 0" result="hardAlpha"/>
<feOffset dy="5.58199"/>
<feGaussianBlur stdDeviation="6.62861"/>
<feComposite in2="hardAlpha" operator="out"/>
<feColorMatrix type="matrix" values="0 0 0 0 0.129412 0 0 0 0 0.411765 0 0 0 0 0.356863 0 0 0 0.3 0"/>
<feBlend mode="normal" in2="BackgroundImageFix" result="effect1_dropShadow_1_2476"/>
<feBlend mode="normal" in="SourceGraphic" in2="effect1_dropShadow_1_2476" result="shape"/>
</filter>
<clipPath id="clip0_1_2476">
<rect width="16.746" height="16.746" fill="white" transform="translate(24.022 17.5952)"/>
</clipPath>
<clipPath id="clip1_1_2476">
<rect width="15.3505" height="15.3505" fill="white" transform="translate(24.7197 18.2927)"/>
</clipPath>
</defs>
</svg>
