<svg width="48" height="48" viewBox="0 0 48 48" fill="none" xmlns="http://www.w3.org/2000/svg">
<path d="M24 48C37.2548 48 48 37.2548 48 24C48 10.7452 37.2548 0 24 0C10.7452 0 0 10.7452 0 24C0 37.2548 10.7452 48 24 48Z" fill="url(#paint0_linear_171_213)"/>
<path d="M32.7744 28.1826C32.0064 27.6615 30.9974 27.6641 30.2322 28.1893L29.1305 28.9455C27.9033 29.7877 26.2713 29.742 25.0917 28.8342C23.98 27.9785 22.919 27.0611 21.9114 26.0889C20.9391 25.0813 20.0217 24.0203 19.1661 22.9085C18.2582 21.729 18.2125 20.097 19.0548 18.8698L19.811 17.768C20.3361 17.0028 20.3388 15.9939 19.8176 15.2259L16.6639 10.5782C15.7927 9.29442 14.0969 8.8643 12.7213 9.58195L12.7205 9.58233C9.94182 11.0321 8.77604 14.3844 10.0492 17.2483C11.8817 21.3709 14.3423 25.1418 17.3118 28.4442L19.5561 30.6884C22.8585 33.6579 26.6294 36.1185 30.752 37.9511C33.6159 39.2242 36.9682 38.0584 38.4179 35.2798L38.4183 35.2789C39.1359 33.9034 38.7059 32.2076 37.422 31.3364L32.7744 28.1826Z" fill="white"/>
<defs>
<linearGradient id="paint0_linear_171_213" x1="23.9208" y1="-1.32095e-06" x2="23.9208" y2="37.632" gradientUnits="userSpaceOnUse">
<stop stop-color="#2E3192"/>
<stop offset="1" stop-color="#1BFFFF"/>
</linearGradient>
</defs>
</svg>
