<svg width="20" height="144" viewBox="0 0 20 144" fill="none" xmlns="http://www.w3.org/2000/svg">
<line x1="9.5" y1="44" x2="9.5" y2="2.18557e-08" stroke="white"/>
<path d="M17.9354 68.2249C16.3483 66.6248 16.2243 66.4498 16.2243 66.4498L10.0244 72.7499L3.60143 66.4248C0.377518 68.7749 0.0303252 74.0499 2.18786 76.2249C4.3454 78.3999 10.0492 84 10.0492 84L17.2162 76.7749C19.6962 74.2999 19.6962 69.9999 17.9354 68.2249ZM16.2739 75.8499L10.0492 82.125C8.33809 80.45 4.74218 76.8999 3.15503 75.2749C2.46065 74.5749 2.08867 73.2249 2.18786 71.7749C2.28706 70.4249 2.80786 69.1999 3.57663 68.2749L9.87566 74.5999L16.2243 68.3499C16.4475 68.5749 16.7202 68.8499 17.0178 69.1499C18.1586 70.3499 18.3074 73.7999 16.2739 75.8499Z" fill="white"/>
<path d="M4.64305 73.7751C4.49425 73.6251 4.22148 73.0001 4.29588 72.0251L9.45412 77.0501V75.0501L3.65108 69.375C3.22949 70.0751 2.9567 70.9251 2.8823 71.8251C2.78311 73.0501 3.0807 74.2001 3.62628 74.7501C4.94065 76.0751 7.64377 78.7751 9.42932 80.5251V78.5251C7.74297 76.9001 5.73422 74.8751 4.64305 73.7751Z" fill="white"/>
<path d="M17.1175 71.8001C17.1175 71.9001 17.1175 72.0251 17.1175 72.1501C17.0679 72.8751 16.8447 74.2501 15.7783 75.3501L10.5705 80.5751V78.5751L12.5544 76.5751L12.5792 75.0001L10.5705 77.0501V75.0751L16.2 69.375C16.2992 69.475 16.3983 69.575 16.4975 69.675C16.6711 69.85 16.8199 70.1251 16.9439 70.5251L15.1088 72.4251L13.5216 74.0501L13.4968 75.6501L14.7864 74.3501C14.836 74.3001 14.8856 74.2501 14.9104 74.2001L17.1175 71.8001Z" fill="white"/>
<path d="M9.97439 62.9751L10.892 63.9251L9.18082 65.6751L9.97439 66.4751L11.7103 64.7251L12.6279 65.6751L9.97439 68.3752L7.29608 65.6751L9.97439 62.9751Z" fill="white"/>
<path d="M9.97525 60L4.34583 65.6751L9.97525 71.3501L15.6047 65.6751L9.97525 60ZM6.08178 65.6751L9.97525 61.75L13.8688 65.6751L9.97525 69.6001L6.08178 65.6751Z" fill="white"/>
<line x1="9.5" y1="144" x2="9.5" y2="100" stroke="white"/>
</svg>
