<svg width="87" height="113" viewBox="0 0 87 113" fill="none" xmlns="http://www.w3.org/2000/svg">
<path d="M80.6801 39.0391C73.2438 31.5425 72.6628 30.7226 72.6628 30.7226L43.6146 60.2404L13.5207 30.6055C-1.58436 41.6161 -3.21107 66.3314 6.89769 76.522C17.0065 86.7127 43.7308 112.951 43.7308 112.951L77.3105 79.099C88.9298 67.5027 88.9298 47.3556 80.6801 39.0391ZM72.8951 74.765L43.7308 104.166C35.7135 96.3177 18.8655 79.6847 11.4292 72.0709C8.17577 68.7912 6.43292 62.4659 6.89769 55.6722C7.36247 49.3469 9.80255 43.6073 13.4045 39.2734L42.9175 68.9083L72.6628 39.6248C73.7085 40.679 74.9866 41.9675 76.3809 43.3731C81.7258 48.9955 82.4229 65.16 72.8951 74.765Z" fill="white"/>
<path d="M18.4015 65.0443C17.7043 64.3414 16.4263 61.4131 16.7749 56.8449L40.9429 80.3888V71.0181L13.7538 44.4286C11.7785 47.7084 10.5004 51.691 10.1518 55.9078C9.68705 61.6474 11.0814 67.0355 13.6376 69.6125C19.7958 75.8206 32.4608 88.4711 40.8267 96.6705V87.2997C32.9256 79.686 23.5139 70.1982 18.4015 65.0443Z" fill="white"/>
<path d="M76.846 55.7907C76.846 56.2592 76.846 56.8449 76.846 57.4305C76.6136 60.8274 75.5678 67.2698 70.5715 72.4237L46.1711 96.9047V87.534L55.4665 78.1633L55.5826 70.7838L46.1711 80.3888V71.1352L72.5469 44.4286C73.0117 44.8972 73.4764 45.3657 73.9411 45.8343C74.7545 46.6542 75.4517 47.9427 76.0327 49.8168L67.4344 58.719L59.998 66.3327L59.8819 73.8293L65.9238 67.7383C66.1562 67.5041 66.3886 67.2698 66.5048 67.0355L76.846 55.7907Z" fill="white"/>
<path d="M43.3817 14.4417L47.6809 18.8927L39.6636 27.0921L43.3817 30.8404L51.5152 22.641L55.8144 27.0921L43.3817 39.7426L30.833 27.0921L43.3817 14.4417Z" fill="white"/>
<path d="M43.3825 0.502533L17.0068 27.092L43.3825 53.6814L69.7583 27.092L43.3825 0.502533ZM25.1403 27.092L43.3825 8.70192L61.6249 27.092L43.3825 45.482L25.1403 27.092Z" fill="white"/>
</svg>
